<svg width="221" height="32" viewBox="0 0 221 32" fill="none" xmlns="http://www.w3.org/2000/svg">
<path d="M0 31.4768V0.741622H11.8505C14.9933 0.741622 17.4153 1.49729 19.1165 3.00862C20.8465 4.51995 21.7115 6.64162 21.7115 9.37364C21.7115 12.0475 20.8465 14.1547 19.1165 15.6951C17.4153 17.2355 14.9933 18.0057 11.8505 18.0057H2.68149V31.4768H0ZM2.68149 15.6515H11.6775C14.0706 15.6515 15.8871 15.1138 17.127 14.0384C18.3668 12.934 18.9867 11.3791 18.9867 9.37364C18.9867 7.36822 18.3668 5.8133 17.127 4.70886C15.8871 3.60443 14.0706 3.05221 11.6775 3.05221H2.68149V15.6515Z" fill="white"/>
<path d="M26.2426 16.0874C26.2426 12.8323 26.776 10.0421 27.8428 7.71699C28.9385 5.3628 30.5099 3.56083 32.557 2.31108C34.6042 1.03226 37.0695 0.392853 39.9528 0.392853C42.7784 0.392853 45.2149 1.03226 47.262 2.31108C49.338 3.56083 50.9238 5.3628 52.0195 7.71699C53.144 10.0421 53.7063 12.8177 53.7063 16.0438C53.7063 19.299 53.144 22.1037 52.0195 24.4579C50.895 26.8121 49.2948 28.6286 47.2188 29.9074C45.1716 31.1862 42.7496 31.8256 39.9528 31.8256C37.0983 31.8256 34.6475 31.1862 32.6003 29.9074C30.5531 28.6286 28.9817 26.8121 27.8861 24.4579C26.7904 22.1037 26.2426 19.3135 26.2426 16.0874ZM29.0971 16.0874C29.0971 20.2727 30.0197 23.5424 31.865 25.8965C33.7104 28.2217 36.4063 29.3842 39.9528 29.3842C43.3839 29.3842 46.0654 28.2217 47.9973 25.8965C49.9291 23.5424 50.895 20.2727 50.895 16.0874C50.895 11.8731 49.9291 8.61798 47.9973 6.32192C46.0943 3.9968 43.4128 2.83423 39.9528 2.83423C36.4063 2.83423 33.7104 3.9968 31.865 6.32192C30.0197 8.61798 29.0971 11.8731 29.0971 16.0874Z" fill="white"/>
<path d="M68.023 31.4768L57.47 0.741622H60.2813L70.0557 29.5586H68.6285L78.7922 0.741622H81.0412L90.7292 29.5586H89.4317L99.4224 0.741622H102.104L91.4212 31.4768H88.8694L79.4842 3.48817H80.3492L70.4882 31.4768H68.023Z" fill="white"/>
<path d="M107.787 31.4768V0.741622H126.73V3.05221H110.382V14.736H125.779V17.0465H110.382V29.1663H126.73V31.4768H107.787Z" fill="white"/>
<path d="M133.086 31.4768V0.741622H145.11C148.253 0.741622 150.689 1.48275 152.419 2.96502C154.149 4.44729 155.014 6.5399 155.014 9.24285C155.014 10.9867 154.625 12.4835 153.846 13.7332C153.068 14.9539 151.987 15.8985 150.603 16.567C149.219 17.2064 147.618 17.5261 145.802 17.5261L146.624 17.0465H147.229C148.411 17.0465 149.464 17.3372 150.386 17.9185C151.309 18.4707 152.044 19.4298 152.592 20.7958L156.831 31.4768H153.89L149.911 21.2754C149.363 19.7931 148.57 18.8485 147.532 18.4416C146.494 18.0057 145.168 17.7877 143.553 17.7877H135.768V31.4768H133.086ZM135.768 15.5207H144.764C147.215 15.5207 149.074 14.983 150.343 13.9076C151.641 12.8323 152.289 11.2919 152.289 9.28645C152.289 7.25197 151.641 5.71157 150.343 4.66527C149.074 3.5899 147.215 3.05221 144.764 3.05221H135.768V15.5207Z" fill="white"/>
<path d="M175.362 32C170.662 32 167.13 30.852 164.766 28.5559C162.402 26.2308 161.219 22.7431 161.219 18.0929V0.741622H170.561V18.2236C170.561 20.1709 170.936 21.6532 171.686 22.6704C172.464 23.6877 173.69 24.1963 175.362 24.1963C177.035 24.1963 178.246 23.6877 178.995 22.6704C179.774 21.6532 180.163 20.1709 180.163 18.2236V0.741622H189.332V18.0929C189.332 22.7431 188.179 26.2308 185.872 28.5559C183.594 30.852 180.091 32 175.362 32Z" fill="white"/>
<path d="M194.125 31.4768V0.741622H209.867C213.472 0.741622 216.182 1.64261 217.998 3.44458C219.815 5.21748 220.723 7.61527 220.723 10.6379C220.723 13.6315 219.815 16.0293 217.998 17.8313C216.182 19.6332 213.472 20.5342 209.867 20.5342H203.467V31.4768H194.125ZM203.467 13.3845H208.613C209.709 13.3845 210.516 13.152 211.035 12.6869C211.554 12.1929 211.814 11.5098 211.814 10.6379C211.814 9.76601 211.554 9.09753 211.035 8.63251C210.516 8.13842 209.709 7.89138 208.613 7.89138H203.467V13.3845Z" fill="white"/>
</svg>
